<svg class="icon" viewBox="0 0 1024 1024" xmlns="http://www.w3.org/2000/svg" width="64" height="64"><path d="M516.427 807.93c5.169 0 10.44-.306 15.711-.87 50.717-5.885 93.808-40.173 109.672-87.41a7.165 7.165 0 0 0-4.043-8.853 7.677 7.677 0 0 0-9.57 2.968c-.204.256-20.368 31.73-98.771 41.965-11.77 1.536-23.183 2.354-34.033 2.354-54.964 0-79.478-20.06-79.682-20.266a7.728 7.728 0 0 0-9.826-.102 7.165 7.165 0 0 0-1.536 9.417 133.828 133.828 0 0 0 112.078 60.798zm421.852-470.008c-.717 0-1.331.153-1.996.153C890.326 145.65 714.686 2.15 504.093 2.15c-216.376 0-396.11 151.484-435.925 351.79C29.478 360.696 0 393.603 0 433.368V592.63c0 44.627 37.001 80.809 82.753 80.809 25.793 0 48.516-11.77 63.664-29.836 36.592 93.551 111.054 168.935 205.322 208.75a42.989 42.989 0 0 1 4.197-6.499c1.484-1.842 3.122-3.378 4.555-3.378a7.165 7.165 0 0 1 3.991 1.28c-21.801-15.66-100.614-96.367-117.707-209.007-7.471-49.59 30.962-98.26 75.691-106.295 71.801-12.896 143.244-27.635 215.046-40.327 45.65-8.035 76.868-32.242 95.957-72.569 4.452-9.417 10.9-28.454 13.868-55.936a8.802 8.802 0 0 1 8.7-7.216c2.969 0 5.477 1.433 7.165 3.582l1.945-1.228c28.3 39.764 84.442 127.686 92.528 220.47 9.212 106.039 4.094 178.608-79.887 252.917a6.5 6.5 0 0 0-2.2 4.862c0 2.303 1.227 4.247 3.07 5.424l2.047.921c.614.154 1.126.308 1.689.308.614 0 1.074-.154 1.586-.308l3.48-1.893c84.954-45.24 150.051-120.778 180.143-211.566 12.231 17.503 31.27 30.092 53.429 34.494C885.515 816.63 741.298 914.48 562.69 929.323a73.183 73.183 0 0 0-68.066-43.91c-40.378 0-73.183 30.91-73.183 69.089 0 38.127 32.805 69.037 73.183 69.037 32.651 0 59.929-20.214 69.396-48.055 206.755-16.223 372.569-135.056 407.164-319.651 30.553-12.385 52.047-41.351 52.047-75.23V419.549c0-45.036-38.024-81.576-84.953-81.576zm-76.254 46.315c-53.94-141.249-193.705-242.119-358.137-242.119-163.715 0-302.967 100.051-357.42 240.328-2.66-3.173-5.885-5.937-8.955-8.7C168.32 202.762 320.52 72.773 504.093 72.773c182.702 0 334.39 128.71 366.223 298.515-3.122 4.094-6.04 8.342-8.342 12.948zM351.842 852.352c-.154.256-.154.308 0 0z" fill="#333"/></svg>