<svg width="52" height="28" viewBox="0 0 52 28" xmlns="http://www.w3.org/2000/svg"><path d="M0 14c0-.417.336-.755.75-.755h14.134a.75.75 0 0 0 .718-.538l3.461-11.629C19.253.438 19.837 0 20.5 0s1.247.438 1.437 1.078l7.563 25.41 3.46-11.627a2.252 2.252 0 0 1 2.156-1.618H51.25c.414 0 .75.339.75.756a.753.753 0 0 1-.75.756H35.116a.75.75 0 0 0-.718.538l-3.461 11.629A1.502 1.502 0 0 1 29.5 28a1.502 1.502 0 0 1-1.437-1.078L20.5 1.512 17.04 13.14a2.252 2.252 0 0 1-2.156 1.618H.75a.755.755 0 0 1-.75-.757z" fill="#FFAC3D"/></svg>